<?xml version="1.0" encoding="UTF-8" standalone="no"?>
<svg
   xmlns:dc="http://purl.org/dc/elements/1.1/"
   xmlns:cc="http://creativecommons.org/ns#"
   xmlns:rdf="http://www.w3.org/1999/02/22-rdf-syntax-ns#"
   xmlns:svg="http://www.w3.org/2000/svg"
   xmlns="http://www.w3.org/2000/svg"
   xmlns:sodipodi="http://sodipodi.sourceforge.net/DTD/sodipodi-0.dtd"
   xmlns:inkscape="http://www.inkscape.org/namespaces/inkscape"
   version="1.0"
   id="Calque_2"
   x="0px"
   y="0px"
   width="100px"
   height="100px"
   viewBox="174.87 242.37 100 100"
   enable-background="new 174.87 242.37 100 100"
   xml:space="preserve"
   inkscape:version="0.48.3.1 r9886"
   sodipodi:docname="simcard.svg"><metadata
   id="metadata27"><rdf:RDF><cc:Work
       rdf:about=""><dc:format>image/svg+xml</dc:format><dc:type
         rdf:resource="http://purl.org/dc/dcmitype/StillImage" /><dc:title></dc:title></cc:Work></rdf:RDF></metadata><defs
   id="defs25" /><sodipodi:namedview
   pagecolor="#ffffff"
   bordercolor="#666666"
   borderopacity="1"
   objecttolerance="10"
   gridtolerance="10"
   guidetolerance="10"
   inkscape:pageopacity="0"
   inkscape:pageshadow="2"
   inkscape:window-width="1920"
   inkscape:window-height="1024"
   id="namedview23"
   showgrid="false"
   inkscape:zoom="2.36"
   inkscape:cx="50"
   inkscape:cy="50"
   inkscape:window-x="0"
   inkscape:window-y="27"
   inkscape:window-maximized="1"
   inkscape:current-layer="Calque_2" />
<g
   id="g3"
   transform="matrix(0.25840103,0,0,0.25840103,134.5058,206.15076)"
   style="fill:#d40055">
	<path
   d="m 260.222,259.186 v 74 c 0,2.768 -2.23,4.996 -4.998,4.996 h -59.14 c -2.769,0 -4.998,-2.229 -4.998,-4.996 v -81.631 c 0,-2.77 2.229,-4.999 4.998,-4.999 h 51.514 l 12.624,12.63 z m -13.304,63.623 v -5.736 -9.996 -9.996 -5.924 c 0,-3.032 -2.466,-5.497 -5.497,-5.497 h -31.653 c -3.03,0 -5.498,2.465 -5.498,5.497 v 6.404 9.996 9.994 5.258 c 0,3.033 2.468,5.498 5.498,5.498 h 15.59 16.063 c 3.031,0 5.497,-2.464 5.497,-5.498 z"
   id="path5"
   inkscape:connector-curvature="0"
   style="fill:#d40055" />
	<path
   d="m 245.919,317.552 v 5.258 c 0,2.48 -2.018,4.498 -4.498,4.498 h -15.59 v -12.754 h 5.443 l 3,2.998 h 11.645 z"
   id="path7"
   inkscape:connector-curvature="0"
   style="fill:#d40055" />
	<polygon
   points="245.919,317.073 234.469,317.073 231.721,314.323 231.721,307.557 245.919,307.557 "
   id="polygon9"
   style="fill:#d40055" />
	<polygon
   points="245.919,307.077 231.721,307.077 231.721,300.309 234.469,297.561 245.919,297.561 "
   id="polygon11"
   style="fill:#d40055" />
	<path
   d="m 245.919,291.157 v 5.924 h -11.645 l -3.03,3.031 0.087,0.088 h -0.087 v 13.873 h -11.295 v -13.514 h 5.882 V 300.2 300.081 286.66 h 15.59 c 2.48,-0.001 4.498,2.017 4.498,4.497 z"
   id="path13"
   inkscape:connector-curvature="0"
   style="fill:#d40055" />
	<path
   d="m 225.357,314.553 v 12.754 h -15.59 c -2.479,0 -4.498,-2.018 -4.498,-4.498 v -5.258 h 11.648 l 2.999,-2.998 h 5.441 z"
   id="path15"
   inkscape:connector-curvature="0"
   style="fill:#d40055" />
	<path
   d="m 225.357,286.659 v 13.421 h -5.44 l -2.999,-3 H 205.27 v -5.924 c 0,-2.48 2.018,-4.498 4.498,-4.498 h 15.589 z"
   id="path17"
   inkscape:connector-curvature="0"
   style="fill:#d40055" />
	<polygon
   points="219.47,314.323 216.721,317.073 205.27,317.073 205.27,307.557 219.47,307.557 "
   id="polygon19"
   style="fill:#d40055" />
	<polygon
   points="219.47,300.559 219.47,307.077 205.27,307.077 205.27,297.561 216.721,297.561 219.47,300.309 "
   id="polygon21"
   style="fill:#d40055" />
</g>
<path
   id="path3005"
   d="m 270.47571,282.94235 c 0,-2.36973 -1.52154,-4.37946 -3.63854,-5.11916 -1.36184,-4.12916 -5.25492,-7.1189 -9.8347,-7.1189 -4.57612,0 -8.46588,2.9849 -9.83105,7.10919 -2.13154,0.73184 -3.66581,2.74944 -3.66581,5.12887 0,2.99671 2.42973,5.42614 5.42645,5.42614 v -9.90348 c 1.09849,-3.40975 4.30006,-5.88403 8.07041,-5.88403 3.74431,0 6.92769,2.44095 8.04771,5.81434 v 9.29983 c -0.38637,0.81487 -2.66035,5.32432 -5.66555,5.46614 -0.23333,-0.63455 -0.83758,-1.08941 -1.55305,-1.08941 -0.91607,0 -1.65972,0.74274 -1.65972,1.65972 0,0.91638 0.74334,1.66003 1.65972,1.66003 0.72062,0 1.3279,-0.46152 1.5573,-1.10335 3.58187,-0.12849 6.06858,-4.83947 6.63161,-6.01131 2.53246,-0.45757 4.45522,-2.66973 4.45522,-5.33462 z"
   inkscape:connector-curvature="0"
   style="fill:#2c5aa0" /><g
   id="g3024"
   transform="matrix(0.34508021,0,0,0.34508021,209.84026,245.20727)"
   style="fill:#ff6600"><g
     id="Layer_2"
     style="fill:#ff6600">
</g><path
     id="path3016"
     d="M 65.029,6.898 H 63.928 V 6.724 c 0,-0.248 -0.202,-0.45 -0.45,-0.45 h -6.91 c -0.248,0 -0.451,0.202 -0.451,0.45 V 6.898 H 35.709 c -3.754,0 -6.808,3.054 -6.808,6.808 v 0.81 h -0.289 c -0.248,0 -0.45,0.202 -0.45,0.451 v 3.46 c 0,0.248 0.202,0.45 0.45,0.45 h 0.289 v 5.99 h -0.289 c -0.248,0 -0.45,0.202 -0.45,0.45 v 2.31 c 0,0.249 0.202,0.451 0.45,0.451 h 0.289 v 3.689 h -0.289 c -0.248,0 -0.45,0.202 -0.45,0.451 v 2.31 c 0,0.248 0.202,0.45 0.45,0.45 h 0.289 v 51.941 c 0,3.754 3.054,6.808 6.808,6.808 h 29.32 c 3.753,0 6.807,-3.054 6.807,-6.808 V 13.706 c 0,-3.754 -3.054,-6.808 -6.807,-6.808 z m -18.073,6.706 h 6.248 c 0.47,0 0.854,0.333 0.854,0.743 0,0.41 -0.384,0.743 -0.854,0.743 h -6.248 c -0.471,0 -0.854,-0.333 -0.854,-0.743 0,-0.41 0.383,-0.743 0.854,-0.743 z m -3.249,0.024 c 0.396,0 0.719,0.322 0.719,0.719 0,0.397 -0.322,0.719 -0.719,0.719 -0.397,0 -0.719,-0.322 -0.719,-0.719 0,-0.397 0.323,-0.719 0.719,-0.719 z m 6.375,76.169 c -2.329,0 -4.217,-1.889 -4.217,-4.217 0,-2.329 1.888,-4.217 4.217,-4.217 2.328,0 4.217,1.888 4.217,4.217 0,2.328 -1.889,4.217 -4.217,4.217 z M 69.249,77.912 H 30.915 V 20.411 h 38.334 v 57.501 z"
     inkscape:connector-curvature="0"
     style="fill:#ff6600" /></g><path
   id="path3029"
   d="m 213.86935,326.10905 c -0.44325,-0.34471 -1.8172,-1.27392 -4.19681,-2.86818 -0.43313,-0.29001 -0.77184,-0.51707 -0.92209,-0.61935 -0.70777,-0.48259 -1.46163,-0.72763 -2.23947,-0.72763 -0.59199,0 -1.96333,0.1686 -3.00382,1.58565 -0.66993,-0.64933 -1.42604,-1.40356 -2.09259,-2.08623 l -0.0247,-0.0258 -0.0262,-0.0251 c -0.68267,-0.66655 -1.43653,-1.42266 -2.08623,-2.09259 0.9397,-0.68979 1.32488,-1.51784 1.47962,-2.13868 0.1495,-0.59912 0.26752,-1.79885 -0.62197,-3.10461 -0.10154,-0.14875 -0.3271,-0.48596 -0.61598,-0.91722 -1.59614,-2.38223 -2.52647,-3.75768 -2.8723,-4.20243 -1.01464,-1.30651 -2.19751,-1.58153 -3.01132,-1.58153 -0.66468,0 -1.1986,0.18135 -1.58827,0.31361 l -0.12814,0.0435 c -0.94533,0.31436 -1.91725,0.71827 -3.37963,2.18102 -2.82248,2.8236 -3.27659,6.14478 -1.43053,10.45324 1.76624,4.12112 5.98853,8.4116 6.46437,8.88707 0.47585,0.47547 4.76633,4.69775 8.88745,6.46438 1.74077,0.74561 3.28071,1.10868 4.70749,1.10868 2.15742,0 4.03645,-0.83067 5.74574,-2.53922 1.46126,-1.46126 1.86554,-2.4328 2.1814,-3.38075 l 0.0427,-0.12702 c 0.24055,-0.70777 0.9723,-2.86069 -1.26867,-4.60071 z m -1.6175,3.78016 c -0.19858,0.59649 -0.39754,1.14878 -1.45713,2.20875 -0.98242,0.98241 -2.06637,1.66171 -3.62655,1.66171 -0.96443,0 -2.11058,-0.25928 -3.52687,-0.86626 -3.70935,-1.58978 -7.94849,-5.8293 -7.94849,-5.8293 0,0 -4.23877,-4.23952 -5.82855,-7.94849 -1.5894,-3.70934 -0.7947,-5.56327 0.79508,-7.15341 1.0596,-1.0596 1.61225,-1.25856 2.20874,-1.45714 0.33759,-0.11241 0.56877,-0.20308 0.76773,-0.20308 0.22031,0 0.40203,0.11053 0.6452,0.42377 0.45973,0.59124 2.95548,4.3478 3.37738,4.96752 0.3758,0.55191 0.24466,0.95432 -0.4189,1.30277 -0.92696,0.48521 -2.4343,1.46051 -2.07611,2.1192 0.42039,0.77259 4.10688,4.37103 4.10688,4.37103 0,0 3.59844,3.68762 4.37104,4.10763 0.0678,0.0371 0.13863,0.0543 0.21244,0.0543 0.64108,0 1.471,-1.29902 1.90676,-2.13044 0.22031,-0.42001 0.46198,-0.62684 0.75048,-0.62684 0.16674,0 0.34958,0.0697 0.55228,0.20795 0.61935,0.42189 4.37628,2.91764 4.9679,3.37775 0.59612,0.46273 0.45786,0.70178 0.22069,1.41255 z"
   inkscape:connector-curvature="0"
   style="fill:#00aa88" /><g
   id="g3063"
   transform="matrix(0.35795281,0,0,0.35795281,234.73089,302.31996)"
   style="fill:#aad400"><ellipse
     id="ellipse3039"
     ry="15.816"
     rx="19.58"
     cy="50.328999"
     cx="50.501999"
     sodipodi:cx="50.501999"
     sodipodi:cy="50.328999"
     sodipodi:rx="19.58"
     sodipodi:ry="15.816"
     d="m 70.081999,50.328999 c 0,8.734935 -8.766265,15.816 -19.58,15.816 -10.813735,0 -19.58,-7.081065 -19.58,-15.816 0,-8.734936 8.766265,-15.816 19.58,-15.816 10.813735,0 19.58,7.081064 19.58,15.816 z"
     style="fill:#aad400" /><path
     id="path3041"
     d="m 50.503,11.518 c 2.376,0 4.301,1.926 4.301,4.301 0,2.378 -1.925,4.302 -4.301,4.302 -2.377,0 -4.302,-1.924 -4.302,-4.302 0,-2.376 1.925,-4.301 4.302,-4.301 z"
     inkscape:connector-curvature="0"
     style="fill:#aad400" /><path
     id="path3043"
     d="m 58.216,32.623 v -8.454 c 0,-1.854 -1.505,-3.36 -3.36,-3.36 H 46.15 c -1.856,0 -3.36,1.506 -3.36,3.36 v 8.454 h 15.426 z"
     inkscape:connector-curvature="0"
     style="fill:#aad400" /><path
     id="path3045"
     d="m 50.503,67.352 c 2.376,0 4.301,1.926 4.301,4.301 0,2.378 -1.925,4.302 -4.301,4.302 -2.377,0 -4.302,-1.924 -4.302,-4.302 0,-2.376 1.925,-4.301 4.302,-4.301 z"
     inkscape:connector-curvature="0"
     style="fill:#aad400" /><path
     id="path3047"
     d="m 58.216,88.457 v -8.454 c 0,-1.854 -1.505,-3.36 -3.36,-3.36 H 46.15 c -1.856,0 -3.36,1.506 -3.36,3.36 v 8.454 h 15.426 z"
     inkscape:connector-curvature="0"
     style="fill:#aad400" /><path
     id="path3049"
     d="m 80.223,39.31 c 2.375,0 4.301,1.926 4.301,4.301 0,2.378 -1.926,4.302 -4.301,4.302 -2.377,0 -4.303,-1.924 -4.303,-4.302 0,-2.376 1.926,-4.301 4.303,-4.301 z"
     inkscape:connector-curvature="0"
     style="fill:#aad400" /><path
     id="path3051"
     d="m 87.936,60.415 v -8.454 c 0,-1.854 -1.506,-3.36 -3.361,-3.36 H 75.87 c -1.857,0 -3.361,1.506 -3.361,3.36 v 8.454 h 15.427 z"
     inkscape:connector-curvature="0"
     style="fill:#aad400" /><path
     id="path3053"
     d="m 19.753,39.31 c 2.375,0 4.301,1.926 4.301,4.301 0,2.378 -1.925,4.302 -4.301,4.302 -2.377,0 -4.302,-1.924 -4.302,-4.302 0,-2.376 1.925,-4.301 4.302,-4.301 z"
     inkscape:connector-curvature="0"
     style="fill:#aad400" /><path
     id="path3055"
     d="m 27.466,60.415 v -8.454 c 0,-1.854 -1.505,-3.36 -3.36,-3.36 H 15.4 c -1.856,0 -3.36,1.506 -3.36,3.36 v 8.454 h 15.426 z"
     inkscape:connector-curvature="0"
     style="fill:#aad400" /></g></svg>